# xmcd CD database file
#
# Track frame offsets:
#	150
#	16709
#	31780
#	52862
#	71336
#	85550
#	101230
#	117617
#	138714
#	151059
#	169728
#	182833
#	203572
#	227082
#	240582
#	260955
#	275866
#	287312
#	304354
#
# Disc length: 4239 seconds
#
# Revision: 2
# Processed by: cddbd v1.5.2PL0 Copyright (c) Steve Scherf et al.
# Submitted via: CDex 1.51
#
DISCID=05108d13
DTITLE=Various Artist - The "LBS" Country Collection Volume 14
DYEAR=2009
DGENRE=Country
TTITLE0=Shazza Leigh - Season Of Love
TTITLE1=Brian Letton - Sorry Mate
TTITLE2=Tom Maxwell - Back To Camoweal
TTITLE3=Noel Parlane - Til The Rivers All Run Dry
TTITLE4=Lynette Guest - Isa
TTITLE5=Ashley Cook - Buddy And Grace
TTITLE6=Lindsay Butler - Today I Started Loving You Again
TTITLE7=Brian Young - The Land Of Ringer Trumby
TTITLE8=Rachel Jillett - My shoes Keep Walking Back To You
TTITLE9=Dale Duncan - Don't Make Me Go To Bed And I'll Be Good
TTITLE10=Pete Smith - Where The Thomson River Flows
TTITLE11=Lana Ross - The Murry River Song
TTITLE12=Greg Bain - Fishin' With Me Dad
TTITLE13=Lindsay Waddington - The Biggest Disappiontment
TTITLE14=Chic - Taylor - What We Can Do
TTITLE15=Les Lawson - Just A Dream
TTITLE16=Peter Salata - Our Love Is Just A Game
TTITLE17=Trevor Adamson - Because He Lives
TTITLE18=Barry Benning and Lindsay Butler - Winter Winds
EXTD=YEAR: 2009
EXTT0=
EXTT1=
EXTT2=
EXTT3=
EXTT4=
EXTT5=
EXTT6=
EXTT7=
EXTT8=
EXTT9=
EXTT10=
EXTT11=
EXTT12=
EXTT13=
EXTT14=
EXTT15=
EXTT16=
EXTT17=
EXTT18=
PLAYORDER=
